grf
version=1
nRows=17
nColumns=37
inDegrees=no
endheader
time	ground_force_1_vx	ground_force_1_vy	ground_force_1_vz	ground_force_1_px	ground_force_1_py	ground_force_1_pz	ground_moment_1_mx	ground_moment_1_my	ground_moment_1_mz	ground_force_2_vx	ground_force_2_vy	ground_force_2_vz	ground_force_2_px	ground_force_2_py	ground_force_2_pz	ground_moment_2_mx	ground_moment_2_my	ground_moment_2_mz	ground_force_3_vx	ground_force_3_vy	ground_force_3_vz	ground_force_3_px	ground_force_3_py	ground_force_3_pz	ground_moment_3_mx	ground_moment_3_my	ground_moment_3_mz	ground_force_4_vx	ground_force_4_vy	ground_force_4_vz	ground_force_4_px	ground_force_4_py	ground_force_4_pz	ground_moment_4_mx	ground_moment_4_my	ground_moment_4_mz
      0.00000000	      0.00000000	     -0.00000000	      0.00000000	      0.00000000	      0.00000000	      0.00000000	      0.00000000	      0.00000000	      0.00000000	      9.18061161	     15.69501400	   -440.76855469	   -300.05203949	  -1008.36900434	      0.00000000	      0.00000000	     -0.00000000	    -21.66093747	     -9.28765350	    -17.00009646	   -278.09204102	   -252.32577883	   -804.08123395	      0.00000000	      0.00000000	     -0.00000000	  -1630.60900852	      0.00000000	     -0.00000000	      0.00000000	      0.00000000	      0.00000000	      0.00000000	      0.00000000	      0.00000000	      0.00000000
      0.01000000	      0.00000000	     -0.00000000	      0.00000000	      0.00000000	      0.00000000	      0.00000000	      0.00000000	      0.00000000	      0.00000000	      8.92105103	     15.43826580	   -441.29397583	   -300.54143604	  -1008.69009969	      0.00000000	      0.00000000	      0.00000000	     31.28283286	     -9.68539292	    -17.03816138	   -278.48574829	   -252.58055768	   -802.54766808	      0.00000000	      0.00000000	     -0.00000000	  -1582.20179196	      0.00000000	     -0.00000000	      0.00000000	      0.00000000	      0.00000000	      0.00000000	      0.00000000	      0.00000000	      0.00000000
      0.02000000	      0.00000000	     -0.00000000	      0.00000000	      0.00000000	      0.00000000	      0.00000000	      0.00000000	      0.00000000	      0.00000000	      8.80491638	     15.57934952	   -439.64224243	   -300.43745067	  -1007.69266580	      0.00000000	      0.00000000	      0.00000000	     34.21279235	     -9.45706229	    -16.86944116	   -278.41156006	   -252.26959155	   -802.34857060	      0.00000000	      0.00000000	     -0.00000000	  -1512.53025291	      0.00000000	     -0.00000000	      0.00000000	      0.00000000	      0.00000000	      0.00000000	      0.00000000	      0.00000000	      0.00000000
      0.03000000	      0.00000000	     -0.00000000	      0.00000000	      0.00000000	      0.00000000	      0.00000000	      0.00000000	      0.00000000	      0.00000000	      8.76947880	     15.63330078	   -439.60275269	   -299.90698847	  -1009.00355615	      0.00000000	      0.00000000	     -0.00000000	     -6.56472479	     -9.33305888	    -16.83445277	   -279.32128906	   -251.67346492	   -802.06920097	      0.00000000	      0.00000000	     -0.00000000	  -1627.68383444	      0.00000000	     -0.00000000	      0.00000000	      0.00000000	      0.00000000	      0.00000000	      0.00000000	      0.00000000	      0.00000000
      0.04000000	      0.00000000	     -0.00000000	      0.00000000	      0.00000000	      0.00000000	      0.00000000	      0.00000000	      0.00000000	      0.00000000	      8.25208664	     15.40187073	   -438.61444092	   -300.04523423	  -1007.61862173	      0.00000000	      0.00000000	     -0.00000000	    -88.20385213	     -8.92452292	    -16.86944121	   -279.84289551	   -252.38846377	   -802.81023835	      0.00000000	      0.00000000	     -0.00000000	  -1712.82734011	      0.00000000	     -0.00000000	      0.00000000	      0.00000000	      0.00000000	      0.00000000	      0.00000000	      0.00000000	      0.00000000
      0.05000000	      0.00000000	     -0.00000000	      0.00000000	      0.00000000	      0.00000000	      0.00000000	      0.00000000	      0.00000000	      0.00000000	      8.33234119	     15.44625854	   -439.46163940	   -300.22035139	  -1008.12066995	      0.00000000	      0.00000000	     -0.00000000	   -100.08710057	     -9.40334467	    -16.84289850	   -280.40313721	   -252.57765202	   -802.47873035	      0.00000000	      0.00000000	     -0.00000000	  -1572.50312893	      0.00000000	     -0.00000000	      0.00000000	      0.00000000	      0.00000000	      0.00000000	      0.00000000	      0.00000000	      0.00000000
      0.06000000	      0.00000000	     -0.00000000	      0.00000000	      0.00000000	      0.00000000	      0.00000000	      0.00000000	      0.00000000	      0.00000000	      8.57232285	     15.70431614	   -438.64947510	   -300.19023365	  -1007.88239034	      0.00000000	      0.00000000	     -0.00000000	   -109.77742056	     -9.36780219	    -16.87835993	   -280.64736938	   -252.30129620	   -803.35580158	      0.00000000	      0.00000000	     -0.00000000	  -1683.09181881	      0.00000000	     -0.00000000	      0.00000000	      0.00000000	      0.00000000	      0.00000000	      0.00000000	      0.00000000	      0.00000000
      0.07000000	      0.00000000	     -0.00000000	      0.00000000	      0.00000000	      0.00000000	      0.00000000	      0.00000000	      0.00000000	      0.00000000	      8.61737919	     15.59782028	   -438.29632568	   -299.44498988	  -1007.62022488	      0.00000000	      0.00000000	     -0.00000000	   -112.59758542	     -9.34115557	    -16.78111948	   -281.20742798	   -251.70683890	   -802.84488558	      0.00000000	      0.00000000	     -0.00000000	  -1504.90020704	      0.00000000	     -0.00000000	      0.00000000	      0.00000000	      0.00000000	      0.00000000	      0.00000000	      0.00000000	      0.00000000
      0.08000000	      0.00000000	     -0.00000000	      0.00000000	      0.00000000	      0.00000000	      0.00000000	      0.00000000	      0.00000000	      0.00000000	      8.78850365	     15.49901676	   -437.83816528	   -299.57084873	  -1007.47406382	      0.00000000	      0.00000000	      0.00000000	     31.46438546	     -9.38627009	    -16.87877192	   -281.83914185	   -251.84464623	   -802.40301072	      0.00000000	      0.00000000	     -0.00000000	  -1662.92007214	      0.00000000	     -0.00000000	      0.00000000	      0.00000000	      0.00000000	      0.00000000	      0.00000000	      0.00000000	      0.00000000
      0.09000000	      0.00000000	     -0.00000000	      0.00000000	      0.00000000	      0.00000000	      0.00000000	      0.00000000	      0.00000000	      0.00000000	      8.59065533	     15.40969658	   -440.24505615	   -299.59487344	  -1010.65017430	      0.00000000	      0.00000000	     -0.00000000	    -42.80692411	     -9.22592311	    -16.96728053	   -281.06707764	   -252.34703442	   -804.07170575	      0.00000000	      0.00000000	     -0.00000000	  -1773.88146569	      0.00000000	     -0.00000000	      0.00000000	      0.00000000	      0.00000000	      0.00000000	      0.00000000	      0.00000000	      0.00000000
      0.10000000	      0.00000000	     -0.00000000	      0.00000000	      0.00000000	      0.00000000	      0.00000000	      0.00000000	      0.00000000	      0.00000000	      8.22370625	     15.82880878	   -437.94311523	   -299.70079328	  -1009.00602626	      0.00000000	      0.00000000	     -0.00000000	   -132.83645782	     -9.65288691	    -16.84323226	   -282.11450195	   -251.49269437	   -801.86220558	      0.00000000	      0.00000000	     -0.00000000	  -1549.20553232	      0.00000000	     -0.00000000	      0.00000000	      0.00000000	      0.00000000	      0.00000000	      0.00000000	      0.00000000	      0.00000000
      0.11000000	      0.00000000	     -0.00000000	      0.00000000	      0.00000000	      0.00000000	      0.00000000	      0.00000000	      0.00000000	      0.00000000	      8.70027924	     15.40929508	   -436.77941895	   -299.62275918	  -1008.27827278	      0.00000000	      0.00000000	     -0.00000000	    -73.57344438	     -9.93560939	    -16.91541013	   -281.43051147	   -251.09417651	   -803.27698677	      0.00000000	      0.00000000	     -0.00000000	  -1505.78561574	      0.00000000	     -0.00000000	      0.00000000	      0.00000000	      0.00000000	      0.00000000	      0.00000000	      0.00000000	      0.00000000
      0.12000000	      0.00000000	     -0.00000000	      0.00000000	      0.00000000	      0.00000000	      0.00000000	      0.00000000	      0.00000000	      0.00000000	      8.69013214	     15.25707054	   -437.48602295	   -299.70231181	  -1008.97900184	      0.00000000	      0.00000000	      0.00000000	     62.30717680	    -10.00828128	    -16.91148289	   -283.09881592	   -252.09511400	   -801.17254770	      0.00000000	      0.00000000	     -0.00000000	  -1554.75300215	      0.00000000	     -0.00000000	      0.00000000	      0.00000000	      0.00000000	      0.00000000	      0.00000000	      0.00000000	      0.00000000
      0.13000000	      0.00000000	     -0.00000000	      0.00000000	      0.00000000	      0.00000000	      0.00000000	      0.00000000	      0.00000000	      0.00000000	      8.45946503	     15.24129868	   -436.42672729	   -299.73402811	  -1008.53357745	      0.00000000	      0.00000000	     -0.00000000	     49.67056900	     -9.81043679	    -17.14469824	   -282.50433350	   -251.42271317	   -802.12068132	      0.00000000	      0.00000000	     -0.00000000	  -1618.43913423	      0.00000000	     -0.00000000	      0.00000000	      0.00000000	      0.00000000	      0.00000000	      0.00000000	      0.00000000	      0.00000000
      0.14000000	      0.00000000	     -0.00000000	      0.00000000	      0.00000000	      0.00000000	      0.00000000	      0.00000000	      0.00000000	      0.00000000	      7.93973541	     14.88912582	   -436.32366943	   -299.12216972	  -1009.00155692	      0.00000000	      0.00000000	     -0.00000000	   -256.69590556	     -9.73213821	    -16.92131148	   -282.07296753	   -250.73932215	   -801.74725430	      0.00000000	      0.00000000	     -0.00000000	  -1702.99359183	      0.00000000	     -0.00000000	      0.00000000	      0.00000000	      0.00000000	      0.00000000	      0.00000000	      0.00000000	      0.00000000
      0.15000000	      0.00000000	     -0.00000000	      0.00000000	      0.00000000	      0.00000000	      0.00000000	      0.00000000	      0.00000000	      0.00000000	      8.19631100	     15.07801914	   -435.55844116	   -299.49320152	  -1008.29301107	      0.00000000	      0.00000000	      0.00000000	     50.59501174	     -9.74744949	    -17.42075263	   -280.82019043	   -250.65604644	   -803.34287595	      0.00000000	      0.00000000	     -0.00000000	  -1683.81947246	      0.00000000	     -0.00000000	      0.00000000	      0.00000000	      0.00000000	      0.00000000	      0.00000000	      0.00000000	      0.00000000
      0.16000000	      0.00000000	     -0.00000000	      0.00000000	      0.00000000	      0.00000000	      0.00000000	      0.00000000	      0.00000000	      0.00000000	      7.83583164	     15.25597858	   -434.98370361	   -299.19805703	  -1007.64830801	      0.00000000	      0.00000000	     -0.00000000	    -60.08524726	     -9.66548784	    -17.24853050	   -281.35739136	   -251.45509475	   -802.02975330	      0.00000000	     -0.00000000	     -0.00000000	  -1695.52939293	      0.00000000	     -0.00000000	      0.00000000	      0.00000000	      0.00000000	      0.00000000	      0.00000000	      0.00000000	      0.00000000
